{
  "asset": {
    "version": "2.0",
    "generator": "THREE.GLTFExporter"
  },
  "scenes": [
    {
      "name": "AuxScene",
      "nodes": [
        116
      ]
    }
  ],
  "scene": 0,
  "nodes": [
    {
      "mesh": 0
    },
    {
      "matrix": [
        1,
        0,
        0,
        0,
        0,
        1,
        0,
        0,
        0,
        0,
        1.1,
        0,
        0,
        0,
        0,
        1
      ],
      "mesh": 1
    },
    {
      "mesh": 2
    },
    {
      "mesh": 3
    },
    {
      "matrix": [
        1,
        0,
        0,
        0,
        0,
        0.9887710779360422,
        0.14943813247359922,
        0,
        0,
        -0.14943813247359922,
        0.9887710779360422,
        0,
        0,
        0,
        0,
        1
      ],
      "mesh": 4
    },
    {
      "matrix": [
        0.984807753012208,
        0.1716982958133601,
        -0.02594965937798983,
        0,
        -0.17364817766693036,
        0.9737494235056526,
        -0.14716783145566595,
        0,
        0,
        0.14943813247359924,
        0.9887710779360422,
        0,
        0,
        0,
        0,
        1
      ],
      "mesh": 4
    },
    {
      "matrix": [
        0.9396926207859084,
        0.3381796257919611,
        0.05111085148694067,
        0,
        -0.3420201433256687,
        0.9291408855830272,
        0.14042591034946822,
        0,
        -3.469446951953614e-18,
        -0.14943813247359922,
        0.9887710779360422,
        0,
        0,
        0,
        0,
        1
      ],
      "mesh": 4
    },
    {
      "matrix": [
        0.8660254037844386,
        0.4943855389680212,
        -0.07471906623679961,
        0,
        -0.5,
        0.8563008720199357,
        -0.1294172190162412,
        0,
        0,
        0.14943813247359922,
        0.9887710779360422,
        0,
        0,
        0,
        0,
        1
      ],
      "mesh": 4
    },
    {
      "matrix": [
        0.7660444431189781,
        0.6355697977136915,
        0.09605697996872525,
        0,
        -0.6427876096865394,
        0.7574425897696672,
        0.1144762509714784,
        0,
        0,
        -0.14943813247359922,
        0.9887710779360422,
        0,
        0,
        0,
        0,
        1
      ],
      "mesh": 4
    },
    {
      "matrix": [
        0.6427876096865393,
        0.7574425897696672,
        -0.11447625097147837,
        0,
        -0.766044443118978,
        0.6355697977136915,
        -0.09605697996872524,
        0,
        6.938893903907228e-18,
        0.14943813247359922,
        0.9887710779360422,
        0,
        0,
        0,
        0,
        1
      ],
      "mesh": 4
    },
    {
      "matrix": [
        0.5,
        0.8563008720199358,
        0.1294172190162412,
        0,
        -0.8660254037844387,
        0.4943855389680212,
        0.07471906623679964,
        0,
        0,
        -0.14943813247359924,
        0.9887710779360422,
        0,
        0,
        0,
        0,
        1
      ],
      "mesh": 4
    },
    {
      "matrix": [
        0.34202014332566877,
        0.9291408855830273,
        -0.14042591034946822,
        0,
        -0.9396926207859085,
        0.33817962579196115,
        -0.05111085148694069,
        0,
        0,
        0.14943813247359922,
        0.9887710779360422,
        0,
        0,
        0,
        0,
        1
      ],
      "mesh": 4
    },
    {
      "matrix": [
        0.17364817766693041,
        0.9737494235056526,
        0.14716783145566592,
        0,
        -0.984807753012208,
        0.17169829581336016,
        0.025949659377989848,
        0,
        0,
        -0.14943813247359922,
        0.9887710779360422,
        0,
        0,
        0,
        0,
        1
      ],
      "mesh": 4
    },
    {
      "matrix": [
        1.1102230246251565e-16,
        0.9887710779360424,
        -0.14943813247359922,
        0,
        -1,
        1.1102230246251565e-16,
        -1.3877787807814457e-17,
        0,
        0,
        0.14943813247359922,
        0.9887710779360422,
        0,
        0,
        0,
        0,
        1
      ],
      "mesh": 4
    },
    {
      "matrix": [
        -0.17364817766693053,
        0.9737494235056529,
        0.14716783145566592,
        0,
        -0.9848077530122082,
        -0.17169829581336016,
        -0.025949659377989834,
        0,
        1.3877787807814457e-17,
        -0.14943813247359922,
        0.9887710779360422,
        0,
        0,
        0,
        0,
        1
      ],
      "mesh": 4
    },
    {
      "matrix": [
        -0.3420201433256689,
        0.9291408855830274,
        -0.14042591034946825,
        0,
        -0.9396926207859086,
        -0.33817962579196115,
        0.05111085148694067,
        0,
        0,
        0.14943813247359924,
        0.9887710779360422,
        0,
        0,
        0,
        0,
        1
      ],
      "mesh": 4
    },
    {
      "matrix": [
        -0.5,
        0.856300872019936,
        0.12941721901624123,
        0,
        -0.8660254037844389,
        -0.4943855389680212,
        -0.07471906623679958,
        0,
        0,
        -0.14943813247359924,
        0.9887710779360422,
        0,
        0,
        0,
        0,
        1
      ],
      "mesh": 4
    },
    {
      "matrix": [
        -0.6427876096865393,
        0.7574425897696672,
        -0.11447625097147837,
        0,
        -0.766044443118978,
        -0.6355697977136914,
        0.09605697996872524,
        0,
        -6.938893903907228e-18,
        0.14943813247359922,
        0.9887710779360422,
        0,
        0,
        0,
        0,
        1
      ],
      "mesh": 4
    },
    {
      "matrix": [
        -0.7660444431189779,
        0.6355697977136916,
        0.09605697996872528,
        0,
        -0.6427876096865395,
        -0.757442589769667,
        -0.11447625097147834,
        0,
        6.938893903907228e-18,
        -0.14943813247359922,
        0.9887710779360422,
        0,
        0,
        0,
        0,
        1
      ],
      "mesh": 4
    },
    {
      "matrix": [
        -0.8660254037844386,
        0.4943855389680212,
        -0.07471906623679961,
        0,
        -0.5,
        -0.8563008720199357,
        0.1294172190162412,
        0,
        0,
        0.14943813247359922,
        0.9887710779360422,
        0,
        0,
        0,
        0,
        1
      ],
      "mesh": 4
    },
    {
      "matrix": [
        -0.9396926207859084,
        0.33817962579196126,
        0.051110851486940695,
        0,
        -0.3420201433256689,
        -0.9291408855830272,
        -0.14042591034946822,
        0,
        6.938893903907228e-18,
        -0.14943813247359922,
        0.9887710779360422,
        0,
        0,
        0,
        0,
        1
      ],
      "mesh": 4
    },
    {
      "matrix": [
        -0.9848077530122084,
        0.1716982958133605,
        -0.02594965937798989,
        0,
        -0.17364817766693075,
        -0.973749423505653,
        0.14716783145566595,
        0,
        -1.734723475976807e-18,
        0.14943813247359924,
        0.9887710779360422,
        0,
        0,
        0,
        0,
        1
      ],
      "mesh": 4
    },
    {
      "matrix": [
        -1.0000000000000004,
        1.2108953356838523e-16,
        1.8300893060435145e-17,
        0,
        -1.2246467991473535e-16,
        -0.9887710779360426,
        -0.14943813247359922,
        0,
        1.5407439555097887e-33,
        -0.14943813247359922,
        0.9887710779360422,
        0,
        0,
        0,
        0,
        1
      ],
      "mesh": 4
    },
    {
      "matrix": [
        -0.9848077530122084,
        -0.17169829581336024,
        0.02594965937798985,
        0,
        0.1736481776669305,
        -0.973749423505653,
        0.14716783145566595,
        0,
        0,
        0.14943813247359924,
        0.9887710779360422,
        0,
        0,
        0,
        0,
        1
      ],
      "mesh": 4
    },
    {
      "matrix": [
        -0.9396926207859084,
        -0.33817962579196104,
        -0.05111085148694067,
        0,
        0.34202014332566866,
        -0.9291408855830272,
        -0.14042591034946822,
        0,
        -3.469446951953614e-18,
        -0.14943813247359922,
        0.9887710779360422,
        0,
        0,
        0,
        0,
        1
      ],
      "mesh": 4
    },
    {
      "matrix": [
        -0.8660254037844386,
        -0.4943855389680214,
        0.07471906623679964,
        0,
        0.5000000000000002,
        -0.8563008720199357,
        0.1294172190162412,
        0,
        0,
        0.14943813247359922,
        0.9887710779360422,
        0,
        0,
        0,
        0,
        1
      ],
      "mesh": 4
    },
    {
      "matrix": [
        -0.7660444431189783,
        -0.6355697977136915,
        -0.09605697996872525,
        0,
        0.6427876096865394,
        -0.7574425897696675,
        -0.1144762509714784,
        0,
        0,
        -0.14943813247359922,
        0.9887710779360422,
        0,
        0,
        0,
        0,
        1
      ],
      "mesh": 4
    },
    {
      "matrix": [
        -0.6427876096865397,
        -0.757442589769667,
        0.11447625097147836,
        0,
        0.7660444431189779,
        -0.6355697977136918,
        0.0960569799687253,
        0,
        0,
        0.14943813247359922,
        0.9887710779360422,
        0,
        0,
        0,
        0,
        1
      ],
      "mesh": 4
    },
    {
      "matrix": [
        -0.5000000000000004,
        -0.8563008720199355,
        -0.12941721901624118,
        0,
        0.8660254037844385,
        -0.4943855389680216,
        -0.07471906623679966,
        0,
        0,
        -0.14943813247359922,
        0.9887710779360422,
        0,
        0,
        0,
        0,
        1
      ],
      "mesh": 4
    },
    {
      "matrix": [
        -0.34202014332566977,
        -0.9291408855830272,
        0.1404259103494682,
        0,
        0.9396926207859084,
        -0.33817962579196204,
        0.051110851486940785,
        0,
        0,
        0.14943813247359924,
        0.9887710779360422,
        0,
        0,
        0,
        0,
        1
      ],
      "mesh": 4
    },
    {
      "matrix": [
        -0.17364817766693053,
        -0.9737494235056529,
        -0.14716783145566592,
        0,
        0.9848077530122082,
        -0.17169829581336016,
        -0.025949659377989834,
        0,
        -1.3877787807814457e-17,
        -0.14943813247359922,
        0.9887710779360422,
        0,
        0,
        0,
        0,
        1
      ],
      "mesh": 4
    },
    {
      "matrix": [
        -2.220446049250313e-16,
        -0.9887710779360424,
        0.14943813247359922,
        0,
        1,
        -2.220446049250313e-16,
        1.3877787807814457e-17,
        0,
        0,
        0.14943813247359922,
        0.9887710779360422,
        0,
        0,
        0,
        0,
        1
      ],
      "mesh": 4
    },
    {
      "matrix": [
        0.17364817766692986,
        -0.9737494235056529,
        -0.14716783145566595,
        0,
        0.9848077530122082,
        0.1716982958133596,
        0.025949659377989785,
        0,
        0,
        -0.14943813247359922,
        0.9887710779360422,
        0,
        0,
        0,
        0,
        1
      ],
      "mesh": 4
    },
    {
      "matrix": [
        0.342020143325669,
        -0.9291408855830272,
        0.14042591034946822,
        0,
        0.9396926207859084,
        0.33817962579196137,
        -0.05111085148694074,
        0,
        1.3877787807814457e-17,
        0.14943813247359922,
        0.9887710779360422,
        0,
        0,
        0,
        0,
        1
      ],
      "mesh": 4
    },
    {
      "matrix": [
        0.5,
        -0.8563008720199358,
        -0.1294172190162412,
        0,
        0.8660254037844387,
        0.4943855389680212,
        0.07471906623679964,
        0,
        0,
        -0.14943813247359924,
        0.9887710779360422,
        0,
        0,
        0,
        0,
        1
      ],
      "mesh": 4
    },
    {
      "matrix": [
        0.6427876096865393,
        -0.7574425897696673,
        0.11447625097147839,
        0,
        0.7660444431189781,
        0.6355697977136914,
        -0.09605697996872523,
        0,
        0,
        0.14943813247359922,
        0.9887710779360422,
        0,
        0,
        0,
        0,
        1
      ],
      "mesh": 4
    },
    {
      "matrix": [
        0.7660444431189779,
        -0.6355697977136917,
        -0.09605697996872528,
        0,
        0.6427876096865396,
        0.7574425897696669,
        0.11447625097147834,
        0,
        6.938893903907228e-18,
        -0.14943813247359922,
        0.9887710779360422,
        0,
        0,
        0,
        0,
        1
      ],
      "mesh": 4
    },
    {
      "matrix": [
        0.8660254037844384,
        -0.4943855389680216,
        0.07471906623679969,
        0,
        0.5000000000000004,
        0.8563008720199354,
        -0.12941721901624115,
        0,
        6.938893903907228e-18,
        0.14943813247359922,
        0.9887710779360422,
        0,
        0,
        0,
        0,
        1
      ],
      "mesh": 4
    },
    {
      "matrix": [
        0.9396926207859081,
        -0.3381796257919618,
        -0.05111085148694078,
        0,
        0.34202014332566943,
        0.929140885583027,
        0.1404259103494682,
        0,
        6.938893903907228e-18,
        -0.14943813247359924,
        0.9887710779360422,
        0,
        0,
        0,
        0,
        1
      ],
      "mesh": 4
    },
    {
      "matrix": [
        0.984807753012208,
        -0.17169829581336016,
        0.025949659377989837,
        0,
        0.17364817766693041,
        0.9737494235056526,
        -0.14716783145566595,
        0,
        0,
        0.14943813247359924,
        0.9887710779360422,
        0,
        0,
        0,
        0,
        1
      ],
      "mesh": 4
    },
    {
      "matrix": [
        1,
        0,
        0,
        0,
        0,
        1,
        0,
        0,
        0,
        0,
        1,
        0,
        5,
        0,
        0,
        1
      ],
      "children": [
        0,
        1,
        2,
        3,
        4,
        5,
        6,
        7,
        8,
        9,
        10,
        11,
        12,
        13,
        14,
        15,
        16,
        17,
        18,
        19,
        20,
        21,
        22,
        23,
        24,
        25,
        26,
        27,
        28,
        29,
        30,
        31,
        32,
        33,
        34,
        35,
        36,
        37,
        38,
        39
      ]
    },
    {
      "mesh": 5
    },
    {
      "matrix": [
        1,
        0,
        0,
        0,
        0,
        1,
        0,
        0,
        0,
        0,
        1.1,
        0,
        0,
        0,
        0,
        1
      ],
      "mesh": 6
    },
    {
      "mesh": 7
    },
    {
      "mesh": 8
    },
    {
      "matrix": [
        1,
        0,
        0,
        0,
        0,
        0.9887710779360422,
        0.14943813247359922,
        0,
        0,
        -0.14943813247359922,
        0.9887710779360422,
        0,
        0,
        0,
        0,
        1
      ],
      "mesh": 9
    },
    {
      "matrix": [
        0.984807753012208,
        0.1716982958133601,
        -0.02594965937798983,
        0,
        -0.17364817766693036,
        0.9737494235056526,
        -0.14716783145566595,
        0,
        0,
        0.14943813247359924,
        0.9887710779360422,
        0,
        0,
        0,
        0,
        1
      ],
      "mesh": 9
    },
    {
      "matrix": [
        0.9396926207859084,
        0.3381796257919611,
        0.05111085148694067,
        0,
        -0.3420201433256687,
        0.9291408855830272,
        0.14042591034946822,
        0,
        -3.469446951953614e-18,
        -0.14943813247359922,
        0.9887710779360422,
        0,
        0,
        0,
        0,
        1
      ],
      "mesh": 9
    },
    {
      "matrix": [
        0.8660254037844386,
        0.4943855389680212,
        -0.07471906623679961,
        0,
        -0.5,
        0.8563008720199357,
        -0.1294172190162412,
        0,
        0,
        0.14943813247359922,
        0.9887710779360422,
        0,
        0,
        0,
        0,
        1
      ],
      "mesh": 9
    },
    {
      "matrix": [
        0.7660444431189781,
        0.6355697977136915,
        0.09605697996872525,
        0,
        -0.6427876096865394,
        0.7574425897696672,
        0.1144762509714784,
        0,
        0,
        -0.14943813247359922,
        0.9887710779360422,
        0,
        0,
        0,
        0,
        1
      ],
      "mesh": 9
    },
    {
      "matrix": [
        0.6427876096865393,
        0.7574425897696672,
        -0.11447625097147837,
        0,
        -0.766044443118978,
        0.6355697977136915,
        -0.09605697996872524,
        0,
        6.938893903907228e-18,
        0.14943813247359922,
        0.9887710779360422,
        0,
        0,
        0,
        0,
        1
      ],
      "mesh": 9
    },
    {
      "matrix": [
        0.5,
        0.8563008720199358,
        0.1294172190162412,
        0,
        -0.8660254037844387,
        0.4943855389680212,
        0.07471906623679964,
        0,
        0,
        -0.14943813247359924,
        0.9887710779360422,
        0,
        0,
        0,
        0,
        1
      ],
      "mesh": 9
    },
    {
      "matrix": [
        0.34202014332566877,
        0.9291408855830273,
        -0.14042591034946822,
        0,
        -0.9396926207859085,
        0.33817962579196115,
        -0.05111085148694069,
        0,
        0,
        0.14943813247359922,
        0.9887710779360422,
        0,
        0,
        0,
        0,
        1
      ],
      "mesh": 9
    },
    {
      "matrix": [
        0.17364817766693041,
        0.9737494235056526,
        0.14716783145566592,
        0,
        -0.984807753012208,
        0.17169829581336016,
        0.025949659377989848,
        0,
        0,
        -0.14943813247359922,
        0.9887710779360422,
        0,
        0,
        0,
        0,
        1
      ],
      "mesh": 9
    },
    {
      "matrix": [
        1.1102230246251565e-16,
        0.9887710779360424,
        -0.14943813247359922,
        0,
        -1,
        1.1102230246251565e-16,
        -1.3877787807814457e-17,
        0,
        0,
        0.14943813247359922,
        0.9887710779360422,
        0,
        0,
        0,
        0,
        1
      ],
      "mesh": 9
    },
    {
      "matrix": [
        -0.17364817766693053,
        0.9737494235056529,
        0.14716783145566592,
        0,
        -0.9848077530122082,
        -0.17169829581336016,
        -0.025949659377989834,
        0,
        1.3877787807814457e-17,
        -0.14943813247359922,
        0.9887710779360422,
        0,
        0,
        0,
        0,
        1
      ],
      "mesh": 9
    },
    {
      "matrix": [
        -0.3420201433256689,
        0.9291408855830274,
        -0.14042591034946825,
        0,
        -0.9396926207859086,
        -0.33817962579196115,
        0.05111085148694067,
        0,
        0,
        0.14943813247359924,
        0.9887710779360422,
        0,
        0,
        0,
        0,
        1
      ],
      "mesh": 9
    },
    {
      "matrix": [
        -0.5,
        0.856300872019936,
        0.12941721901624123,
        0,
        -0.8660254037844389,
        -0.4943855389680212,
        -0.07471906623679958,
        0,
        0,
        -0.14943813247359924,
        0.9887710779360422,
        0,
        0,
        0,
        0,
        1
      ],
      "mesh": 9
    },
    {
      "matrix": [
        -0.6427876096865393,
        0.7574425897696672,
        -0.11447625097147837,
        0,
        -0.766044443118978,
        -0.6355697977136914,
        0.09605697996872524,
        0,
        -6.938893903907228e-18,
        0.14943813247359922,
        0.9887710779360422,
        0,
        0,
        0,
        0,
        1
      ],
      "mesh": 9
    },
    {
      "matrix": [
        -0.7660444431189779,
        0.6355697977136916,
        0.09605697996872528,
        0,
        -0.6427876096865395,
        -0.757442589769667,
        -0.11447625097147834,
        0,
        6.938893903907228e-18,
        -0.14943813247359922,
        0.9887710779360422,
        0,
        0,
        0,
        0,
        1
      ],
      "mesh": 9
    },
    {
      "matrix": [
        -0.8660254037844386,
        0.4943855389680212,
        -0.07471906623679961,
        0,
        -0.5,
        -0.8563008720199357,
        0.1294172190162412,
        0,
        0,
        0.14943813247359922,
        0.9887710779360422,
        0,
        0,
        0,
        0,
        1
      ],
      "mesh": 9
    },
    {
      "matrix": [
        -0.9396926207859084,
        0.33817962579196126,
        0.051110851486940695,
        0,
        -0.3420201433256689,
        -0.9291408855830272,
        -0.14042591034946822,
        0,
        6.938893903907228e-18,
        -0.14943813247359922,
        0.9887710779360422,
        0,
        0,
        0,
        0,
        1
      ],
      "mesh": 9
    },
    {
      "matrix": [
        -0.9848077530122084,
        0.1716982958133605,
        -0.02594965937798989,
        0,
        -0.17364817766693075,
        -0.973749423505653,
        0.14716783145566595,
        0,
        -1.734723475976807e-18,
        0.14943813247359924,
        0.9887710779360422,
        0,
        0,
        0,
        0,
        1
      ],
      "mesh": 9
    },
    {
      "matrix": [
        -1.0000000000000004,
        1.2108953356838523e-16,
        1.8300893060435145e-17,
        0,
        -1.2246467991473535e-16,
        -0.9887710779360426,
        -0.14943813247359922,
        0,
        1.5407439555097887e-33,
        -0.14943813247359922,
        0.9887710779360422,
        0,
        0,
        0,
        0,
        1
      ],
      "mesh": 9
    },
    {
      "matrix": [
        -0.9848077530122084,
        -0.17169829581336024,
        0.02594965937798985,
        0,
        0.1736481776669305,
        -0.973749423505653,
        0.14716783145566595,
        0,
        0,
        0.14943813247359924,
        0.9887710779360422,
        0,
        0,
        0,
        0,
        1
      ],
      "mesh": 9
    },
    {
      "matrix": [
        -0.9396926207859084,
        -0.33817962579196104,
        -0.05111085148694067,
        0,
        0.34202014332566866,
        -0.9291408855830272,
        -0.14042591034946822,
        0,
        -3.469446951953614e-18,
        -0.14943813247359922,
        0.9887710779360422,
        0,
        0,
        0,
        0,
        1
      ],
      "mesh": 9
    },
    {
      "matrix": [
        -0.8660254037844386,
        -0.4943855389680214,
        0.07471906623679964,
        0,
        0.5000000000000002,
        -0.8563008720199357,
        0.1294172190162412,
        0,
        0,
        0.14943813247359922,
        0.9887710779360422,
        0,
        0,
        0,
        0,
        1
      ],
      "mesh": 9
    },
    {
      "matrix": [
        -0.7660444431189783,
        -0.6355697977136915,
        -0.09605697996872525,
        0,
        0.6427876096865394,
        -0.7574425897696675,
        -0.1144762509714784,
        0,
        0,
        -0.14943813247359922,
        0.9887710779360422,
        0,
        0,
        0,
        0,
        1
      ],
      "mesh": 9
    },
    {
      "matrix": [
        -0.6427876096865397,
        -0.757442589769667,
        0.11447625097147836,
        0,
        0.7660444431189779,
        -0.6355697977136918,
        0.0960569799687253,
        0,
        0,
        0.14943813247359922,
        0.9887710779360422,
        0,
        0,
        0,
        0,
        1
      ],
      "mesh": 9
    },
    {
      "matrix": [
        -0.5000000000000004,
        -0.8563008720199355,
        -0.12941721901624118,
        0,
        0.8660254037844385,
        -0.4943855389680216,
        -0.07471906623679966,
        0,
        0,
        -0.14943813247359922,
        0.9887710779360422,
        0,
        0,
        0,
        0,
        1
      ],
      "mesh": 9
    },
    {
      "matrix": [
        -0.34202014332566977,
        -0.9291408855830272,
        0.1404259103494682,
        0,
        0.9396926207859084,
        -0.33817962579196204,
        0.051110851486940785,
        0,
        0,
        0.14943813247359924,
        0.9887710779360422,
        0,
        0,
        0,
        0,
        1
      ],
      "mesh": 9
    },
    {
      "matrix": [
        -0.17364817766693053,
        -0.9737494235056529,
        -0.14716783145566592,
        0,
        0.9848077530122082,
        -0.17169829581336016,
        -0.025949659377989834,
        0,
        -1.3877787807814457e-17,
        -0.14943813247359922,
        0.9887710779360422,
        0,
        0,
        0,
        0,
        1
      ],
      "mesh": 9
    },
    {
      "matrix": [
        -2.220446049250313e-16,
        -0.9887710779360424,
        0.14943813247359922,
        0,
        1,
        -2.220446049250313e-16,
        1.3877787807814457e-17,
        0,
        0,
        0.14943813247359922,
        0.9887710779360422,
        0,
        0,
        0,
        0,
        1
      ],
      "mesh": 9
    },
    {
      "matrix": [
        0.17364817766692986,
        -0.9737494235056529,
        -0.14716783145566595,
        0,
        0.9848077530122082,
        0.1716982958133596,
        0.025949659377989785,
        0,
        0,
        -0.14943813247359922,
        0.9887710779360422,
        0,
        0,
        0,
        0,
        1
      ],
      "mesh": 9
    },
    {
      "matrix": [
        0.342020143325669,
        -0.9291408855830272,
        0.14042591034946822,
        0,
        0.9396926207859084,
        0.33817962579196137,
        -0.05111085148694074,
        0,
        1.3877787807814457e-17,
        0.14943813247359922,
        0.9887710779360422,
        0,
        0,
        0,
        0,
        1
      ],
      "mesh": 9
    },
    {
      "matrix": [
        0.5,
        -0.8563008720199358,
        -0.1294172190162412,
        0,
        0.8660254037844387,
        0.4943855389680212,
        0.07471906623679964,
        0,
        0,
        -0.14943813247359924,
        0.9887710779360422,
        0,
        0,
        0,
        0,
        1
      ],
      "mesh": 9
    },
    {
      "matrix": [
        0.6427876096865393,
        -0.7574425897696673,
        0.11447625097147839,
        0,
        0.7660444431189781,
        0.6355697977136914,
        -0.09605697996872523,
        0,
        0,
        0.14943813247359922,
        0.9887710779360422,
        0,
        0,
        0,
        0,
        1
      ],
      "mesh": 9
    },
    {
      "matrix": [
        0.7660444431189779,
        -0.6355697977136917,
        -0.09605697996872528,
        0,
        0.6427876096865396,
        0.7574425897696669,
        0.11447625097147834,
        0,
        6.938893903907228e-18,
        -0.14943813247359922,
        0.9887710779360422,
        0,
        0,
        0,
        0,
        1
      ],
      "mesh": 9
    },
    {
      "matrix": [
        0.8660254037844384,
        -0.4943855389680216,
        0.07471906623679969,
        0,
        0.5000000000000004,
        0.8563008720199354,
        -0.12941721901624115,
        0,
        6.938893903907228e-18,
        0.14943813247359922,
        0.9887710779360422,
        0,
        0,
        0,
        0,
        1
      ],
      "mesh": 9
    },
    {
      "matrix": [
        0.9396926207859081,
        -0.3381796257919618,
        -0.05111085148694078,
        0,
        0.34202014332566943,
        0.929140885583027,
        0.1404259103494682,
        0,
        6.938893903907228e-18,
        -0.14943813247359924,
        0.9887710779360422,
        0,
        0,
        0,
        0,
        1
      ],
      "mesh": 9
    },
    {
      "matrix": [
        0.984807753012208,
        -0.17169829581336016,
        0.025949659377989837,
        0,
        0.17364817766693041,
        0.9737494235056526,
        -0.14716783145566595,
        0,
        0,
        0.14943813247359924,
        0.9887710779360422,
        0,
        0,
        0,
        0,
        1
      ],
      "mesh": 9
    },
    {
      "matrix": [
        1,
        0,
        0,
        0,
        0,
        1,
        0,
        0,
        0,
        0,
        1,
        0,
        -5,
        0,
        0,
        1
      ],
      "children": [
        41,
        42,
        43,
        44,
        45,
        46,
        47,
        48,
        49,
        50,
        51,
        52,
        53,
        54,
        55,
        56,
        57,
        58,
        59,
        60,
        61,
        62,
        63,
        64,
        65,
        66,
        67,
        68,
        69,
        70,
        71,
        72,
        73,
        74,
        75,
        76,
        77,
        78,
        79,
        80
      ]
    },
    {
      "mesh": 10
    },
    {
      "mesh": 11
    },
    {
      "mesh": 12
    },
    {
      "mesh": 13
    },
    {
      "mesh": 14
    },
    {
      "mesh": 15
    },
    {
      "mesh": 16
    },
    {
      "children": [
        82,
        83,
        84,
        85,
        86,
        87,
        88
      ]
    },
    {
      "mesh": 17
    },
    {
      "mesh": 18
    },
    {
      "mesh": 19
    },
    {
      "mesh": 20
    },
    {
      "matrix": [
        1,
        0,
        0,
        0,
        0,
        1,
        0,
        0,
        0,
        0,
        1,
        0,
        0.1,
        1.2,
        1.6,
        1
      ],
      "mesh": 21
    },
    {
      "matrix": [
        1,
        0,
        0,
        0,
        0,
        1,
        0,
        0,
        0,
        0,
        1,
        0,
        0.1,
        1.2,
        -1.6,
        1
      ],
      "mesh": 21
    },
    {
      "matrix": [
        0.9800665778412416,
        -0.19866933079506124,
        0,
        0,
        0.19866933079506124,
        0.9800665778412416,
        0,
        0,
        0,
        0,
        1,
        0,
        4,
        2.5,
        0,
        1
      ],
      "children": [
        90,
        91,
        92,
        93,
        94,
        95
      ]
    },
    {
      "mesh": 22
    },
    {
      "matrix": [
        1,
        0,
        0,
        0,
        0,
        1,
        0,
        0,
        0,
        0,
        1,
        0,
        -0.3,
        -0.4,
        0.3,
        1
      ],
      "mesh": 23
    },
    {
      "matrix": [
        1,
        0,
        0,
        0,
        0,
        1,
        0,
        0,
        0,
        0,
        1,
        0,
        -0.3,
        -0.4,
        -0.3,
        1
      ],
      "mesh": 23
    },
    {
      "matrix": [
        1,
        0,
        0,
        0,
        0,
        1,
        0,
        0,
        0,
        0,
        1,
        0,
        -2.3,
        3.7,
        0,
        1
      ],
      "children": [
        97,
        98,
        99
      ]
    },
    {
      "matrix": [
        1,
        0,
        0,
        0,
        0,
        1,
        0,
        0,
        0,
        0,
        1,
        0,
        5,
        0,
        0,
        1
      ],
      "mesh": 24
    },
    {
      "matrix": [
        1,
        0,
        0,
        0,
        0,
        1,
        0,
        0,
        0,
        0,
        1,
        0,
        -5,
        0,
        0,
        1
      ],
      "mesh": 25
    },
    {
      "matrix": [
        2.220446049250313e-16,
        0,
        -1,
        0,
        0,
        1,
        0,
        0,
        1,
        0,
        2.220446049250313e-16,
        0,
        0,
        0,
        0.2,
        1
      ],
      "mesh": 26
    },
    {
      "matrix": [
        1,
        0,
        0,
        0,
        0,
        1,
        0,
        0,
        0,
        0,
        1,
        0,
        0,
        0.4,
        0,
        1
      ],
      "mesh": 27
    },
    {
      "matrix": [
        1,
        0,
        0,
        0,
        0,
        1,
        0,
        0,
        0,
        0,
        1,
        0,
        0,
        0.8,
        0,
        1
      ],
      "mesh": 28
    },
    {
      "matrix": [
        1,
        0,
        0,
        0,
        0,
        1,
        0,
        0,
        0,
        0,
        1,
        0,
        0,
        0,
        0.4,
        1
      ],
      "children": [
        104,
        105
      ]
    },
    {
      "matrix": [
        1,
        0,
        0,
        0,
        0,
        1,
        0,
        0,
        0,
        0,
        1,
        0,
        0,
        0.4,
        0,
        1
      ],
      "mesh": 27
    },
    {
      "matrix": [
        1,
        0,
        0,
        0,
        0,
        1,
        0,
        0,
        0,
        0,
        1,
        0,
        0,
        0.8,
        0,
        1
      ],
      "mesh": 28
    },
    {
      "matrix": [
        1,
        0,
        0,
        0,
        0,
        -1,
        1.2246467991473532e-16,
        0,
        0,
        -1.2246467991473532e-16,
        -1,
        0,
        0,
        0,
        -0.4,
        1
      ],
      "children": [
        107,
        108
      ]
    },
    {
      "mesh": 29
    },
    {
      "matrix": [
        1,
        0,
        0,
        0,
        0,
        1,
        0,
        0,
        0,
        0,
        1,
        0,
        -1,
        0.4,
        0,
        1
      ],
      "children": [
        103,
        106,
        109,
        110
      ]
    },
    {
      "mesh": 30
    },
    {
      "matrix": [
        2.220446049250313e-16,
        0,
        -1,
        0,
        0,
        1,
        0,
        0,
        1,
        0,
        2.220446049250313e-16,
        0,
        0.4,
        0,
        0,
        1
      ],
      "mesh": 31
    },
    {
      "matrix": [
        1,
        0,
        0,
        0,
        0,
        1,
        0,
        0,
        0,
        0,
        1,
        0,
        4.5,
        2.7,
        0,
        1
      ],
      "children": [
        112,
        113
      ]
    },
    {
      "mesh": 32
    },
    {
      "matrix": [
        1,
        0,
        0,
        0,
        0,
        1,
        0,
        0,
        0,
        0,
        1,
        0,
        0,
        3.9,
        0,
        1
      ],
      "children": [
        40,
        81,
        89,
        96,
        100,
        101,
        102,
        111,
        114,
        115
      ]
    }
  ],
  "bufferViews": [
    {
      "buffer": 0,
      "byteOffset": 0,
      "byteLength": 25452,
      "target": 34962,
      "byteStride": 12
    },
    {
      "buffer": 0,
      "byteOffset": 25452,
      "byteLength": 25452,
      "target": 34962,
      "byteStride": 12
    },
    {
      "buffer": 0,
      "byteOffset": 50904,
      "byteLength": 16968,
      "target": 34962,
      "byteStride": 8
    },
    {
      "buffer": 0,
      "byteOffset": 67872,
      "byteLength": 24000,
      "target": 34963
    },
    {
      "buffer": 0,
      "byteOffset": 91872,
      "byteLength": 13332,
      "target": 34962,
      "byteStride": 12
    },
    {
      "buffer": 0,
      "byteOffset": 105204,
      "byteLength": 13332,
      "target": 34962,
      "byteStride": 12
    },
    {
      "buffer": 0,
      "byteOffset": 118536,
      "byteLength": 8888,
      "target": 34962,
      "byteStride": 8
    },
    {
      "buffer": 0,
      "byteOffset": 127424,
      "byteLength": 12000,
      "target": 34963
    },
    {
      "buffer": 0,
      "byteOffset": 139424,
      "byteLength": 15756,
      "target": 34962,
      "byteStride": 12
    },
    {
      "buffer": 0,
      "byteOffset": 155180,
      "byteLength": 15756,
      "target": 34962,
      "byteStride": 12
    },
    {
      "buffer": 0,
      "byteOffset": 170936,
      "byteLength": 10504,
      "target": 34962,
      "byteStride": 8
    },
    {
      "buffer": 0,
      "byteOffset": 181440,
      "byteLength": 14400,
      "target": 34963
    },
    {
      "buffer": 0,
      "byteOffset": 195840,
      "byteLength": 1200,
      "target": 34962,
      "byteStride": 12
    },
    {
      "buffer": 0,
      "byteOffset": 197040,
      "byteLength": 1200,
      "target": 34962,
      "byteStride": 12
    },
    {
      "buffer": 0,
      "byteOffset": 198240,
      "byteLength": 800,
      "target": 34962,
      "byteStride": 8
    },
    {
      "buffer": 0,
      "byteOffset": 199040,
      "byteLength": 384,
      "target": 34963
    },
    {
      "buffer": 0,
      "byteOffset": 199424,
      "byteLength": 624,
      "target": 34962,
      "byteStride": 12
    },
    {
      "buffer": 0,
      "byteOffset": 200048,
      "byteLength": 624,
      "target": 34962,
      "byteStride": 12
    },
    {
      "buffer": 0,
      "byteOffset": 200672,
      "byteLength": 416,
      "target": 34962,
      "byteStride": 8
    },
    {
      "buffer": 0,
      "byteOffset": 201088,
      "byteLength": 192,
      "target": 34963
    },
    {
      "buffer": 0,
      "byteOffset": 201280,
      "byteLength": 25452,
      "target": 34962,
      "byteStride": 12
    },
    {
      "buffer": 0,
      "byteOffset": 226732,
      "byteLength": 25452,
      "target": 34962,
      "byteStride": 12
    },
    {
      "buffer": 0,
      "byteOffset": 252184,
      "byteLength": 16968,
      "target": 34962,
      "byteStride": 8
    },
    {
      "buffer": 0,
      "byteOffset": 269152,
      "byteLength": 24000,
      "target": 34963
    },
    {
      "buffer": 0,
      "byteOffset": 293152,
      "byteLength": 13332,
      "target": 34962,
      "byteStride": 12
    },
    {
      "buffer": 0,
      "byteOffset": 306484,
      "byteLength": 13332,
      "target": 34962,
      "byteStride": 12
    },
    {
      "buffer": 0,
      "byteOffset": 319816,
      "byteLength": 8888,
      "target": 34962,
      "byteStride": 8
    },
    {
      "buffer": 0,
      "byteOffset": 328704,
      "byteLength": 12000,
      "target": 34963
    },
    {
      "buffer": 0,
      "byteOffset": 340704,
      "byteLength": 15756,
      "target": 34962,
      "byteStride": 12
    },
    {
      "buffer": 0,
      "byteOffset": 356460,
      "byteLength": 15756,
      "target": 34962,
      "byteStride": 12
    },
    {
      "buffer": 0,
      "byteOffset": 372216,
      "byteLength": 10504,
      "target": 34962,
      "byteStride": 8
    },
    {
      "buffer": 0,
      "byteOffset": 382720,
      "byteLength": 14400,
      "target": 34963
    },
    {
      "buffer": 0,
      "byteOffset": 397120,
      "byteLength": 1200,
      "target": 34962,
      "byteStride": 12
    },
    {
      "buffer": 0,
      "byteOffset": 398320,
      "byteLength": 1200,
      "target": 34962,
      "byteStride": 12
    },
    {
      "buffer": 0,
      "byteOffset": 399520,
      "byteLength": 800,
      "target": 34962,
      "byteStride": 8
    },
    {
      "buffer": 0,
      "byteOffset": 400320,
      "byteLength": 384,
      "target": 34963
    },
    {
      "buffer": 0,
      "byteOffset": 400704,
      "byteLength": 624,
      "target": 34962,
      "byteStride": 12
    },
    {
      "buffer": 0,
      "byteOffset": 401328,
      "byteLength": 624,
      "target": 34962,
      "byteStride": 12
    },
    {
      "buffer": 0,
      "byteOffset": 401952,
      "byteLength": 416,
      "target": 34962,
      "byteStride": 8
    },
    {
      "buffer": 0,
      "byteOffset": 402368,
      "byteLength": 192,
      "target": 34963
    },
    {
      "buffer": 0,
      "byteOffset": 402560,
      "byteLength": 6396,
      "target": 34962,
      "byteStride": 12
    },
    {
      "buffer": 0,
      "byteOffset": 408956,
      "byteLength": 6396,
      "target": 34962,
      "byteStride": 12
    },
    {
      "buffer": 0,
      "byteOffset": 415352,
      "byteLength": 4264,
      "target": 34962,
      "byteStride": 8
    },
    {
      "buffer": 0,
      "byteOffset": 419616,
      "byteLength": 5760,
      "target": 34963
    },
    {
      "buffer": 0,
      "byteOffset": 425376,
      "byteLength": 6396,
      "target": 34962,
      "byteStride": 12
    },
    {
      "buffer": 0,
      "byteOffset": 431772,
      "byteLength": 6396,
      "target": 34962,
      "byteStride": 12
    },
    {
      "buffer": 0,
      "byteOffset": 438168,
      "byteLength": 4264,
      "target": 34962,
      "byteStride": 8
    },
    {
      "buffer": 0,
      "byteOffset": 442432,
      "byteLength": 5760,
      "target": 34963
    },
    {
      "buffer": 0,
      "byteOffset": 448192,
      "byteLength": 1716,
      "target": 34962,
      "byteStride": 12
    },
    {
      "buffer": 0,
      "byteOffset": 449908,
      "byteLength": 1716,
      "target": 34962,
      "byteStride": 12
    },
    {
      "buffer": 0,
      "byteOffset": 451624,
      "byteLength": 1144,
      "target": 34962,
      "byteStride": 8
    },
    {
      "buffer": 0,
      "byteOffset": 452768,
      "byteLength": 1440,
      "target": 34963
    },
    {
      "buffer": 0,
      "byteOffset": 454208,
      "byteLength": 1188,
      "target": 34962,
      "byteStride": 12
    },
    {
      "buffer": 0,
      "byteOffset": 455396,
      "byteLength": 1188,
      "target": 34962,
      "byteStride": 12
    },
    {
      "buffer": 0,
      "byteOffset": 456584,
      "byteLength": 792,
      "target": 34962,
      "byteStride": 8
    },
    {
      "buffer": 0,
      "byteOffset": 457376,
      "byteLength": 960,
      "target": 34963
    },
    {
      "buffer": 0,
      "byteOffset": 458336,
      "byteLength": 1188,
      "target": 34962,
      "byteStride": 12
    },
    {
      "buffer": 0,
      "byteOffset": 459524,
      "byteLength": 1188,
      "target": 34962,
      "byteStride": 12
    },
    {
      "buffer": 0,
      "byteOffset": 460712,
      "byteLength": 792,
      "target": 34962,
      "byteStride": 8
    },
    {
      "buffer": 0,
      "byteOffset": 461504,
      "byteLength": 960,
      "target": 34963
    },
    {
      "buffer": 0,
      "byteOffset": 462464,
      "byteLength": 1188,
      "target": 34962,
      "byteStride": 12
    },
    {
      "buffer": 0,
      "byteOffset": 463652,
      "byteLength": 1188,
      "target": 34962,
      "byteStride": 12
    },
    {
      "buffer": 0,
      "byteOffset": 464840,
      "byteLength": 792,
      "target": 34962,
      "byteStride": 8
    },
    {
      "buffer": 0,
      "byteOffset": 465632,
      "byteLength": 960,
      "target": 34963
    },
    {
      "buffer": 0,
      "byteOffset": 466592,
      "byteLength": 1188,
      "target": 34962,
      "byteStride": 12
    },
    {
      "buffer": 0,
      "byteOffset": 467780,
      "byteLength": 1188,
      "target": 34962,
      "byteStride": 12
    },
    {
      "buffer": 0,
      "byteOffset": 468968,
      "byteLength": 792,
      "target": 34962,
      "byteStride": 8
    },
    {
      "buffer": 0,
      "byteOffset": 469760,
      "byteLength": 960,
      "target": 34963
    },
    {
      "buffer": 0,
      "byteOffset": 470720,
      "byteLength": 1716,
      "target": 34962,
      "byteStride": 12
    },
    {
      "buffer": 0,
      "byteOffset": 472436,
      "byteLength": 1716,
      "target": 34962,
      "byteStride": 12
    },
    {
      "buffer": 0,
      "byteOffset": 474152,
      "byteLength": 1144,
      "target": 34962,
      "byteStride": 8
    },
    {
      "buffer": 0,
      "byteOffset": 475296,
      "byteLength": 1440,
      "target": 34963
    },
    {
      "buffer": 0,
      "byteOffset": 476736,
      "byteLength": 1716,
      "target": 34962,
      "byteStride": 12
    },
    {
      "buffer": 0,
      "byteOffset": 478452,
      "byteLength": 1716,
      "target": 34962,
      "byteStride": 12
    },
    {
      "buffer": 0,
      "byteOffset": 480168,
      "byteLength": 1144,
      "target": 34962,
      "byteStride": 8
    },
    {
      "buffer": 0,
      "byteOffset": 481312,
      "byteLength": 1440,
      "target": 34963
    },
    {
      "buffer": 0,
      "byteOffset": 482752,
      "byteLength": 936,
      "target": 34962,
      "byteStride": 12
    },
    {
      "buffer": 0,
      "byteOffset": 483688,
      "byteLength": 936,
      "target": 34962,
      "byteStride": 12
    },
    {
      "buffer": 0,
      "byteOffset": 484624,
      "byteLength": 624,
      "target": 34962,
      "byteStride": 8
    },
    {
      "buffer": 0,
      "byteOffset": 485248,
      "byteLength": 720,
      "target": 34963
    },
    {
      "buffer": 0,
      "byteOffset": 485968,
      "byteLength": 6396,
      "target": 34962,
      "byteStride": 12
    },
    {
      "buffer": 0,
      "byteOffset": 492364,
      "byteLength": 6396,
      "target": 34962,
      "byteStride": 12
    },
    {
      "buffer": 0,
      "byteOffset": 498760,
      "byteLength": 4264,
      "target": 34962,
      "byteStride": 8
    },
    {
      "buffer": 0,
      "byteOffset": 503024,
      "byteLength": 5760,
      "target": 34963
    },
    {
      "buffer": 0,
      "byteOffset": 508784,
      "byteLength": 1200,
      "target": 34962,
      "byteStride": 12
    },
    {
      "buffer": 0,
      "byteOffset": 509984,
      "byteLength": 1200,
      "target": 34962,
      "byteStride": 12
    },
    {
      "buffer": 0,
      "byteOffset": 511184,
      "byteLength": 800,
      "target": 34962,
      "byteStride": 8
    },
    {
      "buffer": 0,
      "byteOffset": 511984,
      "byteLength": 384,
      "target": 34963
    },
    {
      "buffer": 0,
      "byteOffset": 512368,
      "byteLength": 20592,
      "target": 34962,
      "byteStride": 12
    },
    {
      "buffer": 0,
      "byteOffset": 532960,
      "byteLength": 13728,
      "target": 34962,
      "byteStride": 8
    },
    {
      "buffer": 0,
      "byteOffset": 546688,
      "byteLength": 20592,
      "target": 34962,
      "byteStride": 12
    },
    {
      "buffer": 0,
      "byteOffset": 567280,
      "byteLength": 2268,
      "target": 34962,
      "byteStride": 12
    },
    {
      "buffer": 0,
      "byteOffset": 569548,
      "byteLength": 2268,
      "target": 34962,
      "byteStride": 12
    },
    {
      "buffer": 0,
      "byteOffset": 571816,
      "byteLength": 1512,
      "target": 34962,
      "byteStride": 8
    },
    {
      "buffer": 0,
      "byteOffset": 573328,
      "byteLength": 1920,
      "target": 34963
    },
    {
      "buffer": 0,
      "byteOffset": 575248,
      "byteLength": 1476,
      "target": 34962,
      "byteStride": 12
    },
    {
      "buffer": 0,
      "byteOffset": 576724,
      "byteLength": 984,
      "target": 34962,
      "byteStride": 8
    },
    {
      "buffer": 0,
      "byteOffset": 577708,
      "byteLength": 1476,
      "target": 34962,
      "byteStride": 12
    },
    {
      "buffer": 0,
      "byteOffset": 579184,
      "byteLength": 960,
      "target": 34963
    },
    {
      "buffer": 0,
      "byteOffset": 580144,
      "byteLength": 1476,
      "target": 34962,
      "byteStride": 12
    },
    {
      "buffer": 0,
      "byteOffset": 581620,
      "byteLength": 984,
      "target": 34962,
      "byteStride": 8
    },
    {
      "buffer": 0,
      "byteOffset": 582604,
      "byteLength": 1476,
      "target": 34962,
      "byteStride": 12
    },
    {
      "buffer": 0,
      "byteOffset": 584080,
      "byteLength": 960,
      "target": 34963
    },
    {
      "buffer": 0,
      "byteOffset": 585040,
      "byteLength": 408,
      "target": 34962,
      "byteStride": 12
    },
    {
      "buffer": 0,
      "byteOffset": 585448,
      "byteLength": 408,
      "target": 34962,
      "byteStride": 12
    },
    {
      "buffer": 0,
      "byteOffset": 585856,
      "byteLength": 272,
      "target": 34962,
      "byteStride": 8
    },
    {
      "buffer": 0,
      "byteOffset": 586128,
      "byteLength": 192,
      "target": 34963
    },
    {
      "buffer": 0,
      "byteOffset": 586320,
      "byteLength": 288,
      "target": 34962,
      "byteStride": 12
    },
    {
      "buffer": 0,
      "byteOffset": 586608,
      "byteLength": 288,
      "target": 34962,
      "byteStride": 12
    },
    {
      "buffer": 0,
      "byteOffset": 586896,
      "byteLength": 192,
      "target": 34962,
      "byteStride": 8
    },
    {
      "buffer": 0,
      "byteOffset": 587088,
      "byteLength": 72,
      "target": 34963
    },
    {
      "buffer": 0,
      "byteOffset": 587160,
      "byteLength": 288,
      "target": 34962,
      "byteStride": 12
    },
    {
      "buffer": 0,
      "byteOffset": 587448,
      "byteLength": 288,
      "target": 34962,
      "byteStride": 12
    },
    {
      "buffer": 0,
      "byteOffset": 587736,
      "byteLength": 192,
      "target": 34962,
      "byteStride": 8
    },
    {
      "buffer": 0,
      "byteOffset": 587928,
      "byteLength": 72,
      "target": 34963
    },
    {
      "buffer": 0,
      "byteOffset": 588000,
      "byteLength": 3444,
      "target": 34962,
      "byteStride": 12
    },
    {
      "buffer": 0,
      "byteOffset": 591444,
      "byteLength": 3444,
      "target": 34962,
      "byteStride": 12
    },
    {
      "buffer": 0,
      "byteOffset": 594888,
      "byteLength": 2296,
      "target": 34962,
      "byteStride": 8
    },
    {
      "buffer": 0,
      "byteOffset": 597184,
      "byteLength": 2880,
      "target": 34963
    },
    {
      "buffer": 0,
      "byteOffset": 600064,
      "byteLength": 3468,
      "target": 34962,
      "byteStride": 12
    },
    {
      "buffer": 0,
      "byteOffset": 603532,
      "byteLength": 3468,
      "target": 34962,
      "byteStride": 12
    },
    {
      "buffer": 0,
      "byteOffset": 607000,
      "byteLength": 2312,
      "target": 34962,
      "byteStride": 8
    },
    {
      "buffer": 0,
      "byteOffset": 609312,
      "byteLength": 2880,
      "target": 34963
    },
    {
      "buffer": 0,
      "byteOffset": 612192,
      "byteLength": 216,
      "target": 34962,
      "byteStride": 12
    },
    {
      "buffer": 0,
      "byteOffset": 612408,
      "byteLength": 216,
      "target": 34962,
      "byteStride": 12
    },
    {
      "buffer": 0,
      "byteOffset": 612624,
      "byteLength": 144,
      "target": 34962,
      "byteStride": 8
    },
    {
      "buffer": 0,
      "byteOffset": 612768,
      "byteLength": 96,
      "target": 34963
    },
    {
      "buffer": 0,
      "byteOffset": 612864,
      "byteLength": 648,
      "target": 34962,
      "byteStride": 12
    },
    {
      "buffer": 0,
      "byteOffset": 613512,
      "byteLength": 648,
      "target": 34962,
      "byteStride": 12
    },
    {
      "buffer": 0,
      "byteOffset": 614160,
      "byteLength": 432,
      "target": 34962,
      "byteStride": 8
    },
    {
      "buffer": 0,
      "byteOffset": 614592,
      "byteLength": 480,
      "target": 34963
    }
  ],
  "buffers": [
    {
      "byteLength": 615072,
      "uri": "data:application/octet-stream;base64,"
    }
  ],
  "accessors": [
    {
      "bufferView": 0,
      "componentType": 5126,
      "count": 2121,
      "max": [
        3.9000000953674316,
        3.9000000953674316,
        0.4000000059604645
      ],
      "min": [
        -3.9000000953674316,
        -3.9000000953674316,
        -0.4000000059604645
      ],
      "type": "VEC3"
    },
    {
      "bufferView": 1,
      "componentType": 5126,
      "count": 2121,
      "max": [
        1,
        1,
        1
      ],
      "min": [
        -1,
        -1,
        -1
      ],
      "type": "VEC3"
    },
    {
      "bufferView": 2,
      "componentType": 5126,
      "count": 2121,
      "max": [
        1,
        1
      ],
      "min": [
        0,
        0
      ],
      "type": "VEC2"
    },
    {
      "bufferView": 3,
      "componentType": 5123,
      "count": 12000,
      "max": [
        2120
      ],
      "min": [
        0
      ],
      "type": "SCALAR"
    },
    {
      "bufferView": 4,
      "componentType": 5126,
      "count": 1111,
      "max": [
        3.5,
        3.5,
        0.19021129608154297
      ],
      "min": [
        -3.5,
        -3.5,
        -0.19021129608154297
      ],
      "type": "VEC3"
    },
    {
      "bufferView": 5,
      "componentType": 5126,
      "count": 1111,
      "max": [
        1,
        1,
        0.9510565400123596
      ],
      "min": [
        -1,
        -1,
        -0.9510565400123596
      ],
      "type": "VEC3"
    },
    {
      "bufferView": 6,
      "componentType": 5126,
      "count": 1111,
      "max": [
        1,
        1
      ],
      "min": [
        0,
        0
      ],
      "type": "VEC2"
    },
    {
      "bufferView": 7,
      "componentType": 5123,
      "count": 6000,
      "max": [
        1110
      ],
      "min": [
        0
      ],
      "type": "SCALAR"
    },
    {
      "bufferView": 8,
      "componentType": 5126,
      "count": 1313,
      "max": [
        3.25,
        3.25,
        0.15000000596046448
      ],
      "min": [
        -3.25,
        -3.25,
        -0.15000000596046448
      ],
      "type": "VEC3"
    },
    {
      "bufferView": 9,
      "componentType": 5126,
      "count": 1313,
      "max": [
        1,
        1,
        1
      ],
      "min": [
        -1,
        -1,
        -1
      ],
      "type": "VEC3"
    },
    {
      "bufferView": 10,
      "componentType": 5126,
      "count": 1313,
      "max": [
        1,
        1
      ],
      "min": [
        0,
        0
      ],
      "type": "VEC2"
    },
    {
      "bufferView": 11,
      "componentType": 5123,
      "count": 7200,
      "max": [
        1312
      ],
      "min": [
        0
      ],
      "type": "SCALAR"
    },
    {
      "bufferView": 12,
      "componentType": 5126,
      "count": 100,
      "max": [
        0.30000001192092896,
        0.30000001192092896,
        0.4000000059604645
      ],
      "min": [
        -0.30000001192092896,
        -0.30000001192092896,
        -0.4000000059604645
      ],
      "type": "VEC3"
    },
    {
      "bufferView": 13,
      "componentType": 5126,
      "count": 100,
      "max": [
        1,
        1,
        1
      ],
      "min": [
        -1,
        -1,
        -1
      ],
      "type": "VEC3"
    },
    {
      "bufferView": 14,
      "componentType": 5126,
      "count": 100,
      "max": [
        1,
        1
      ],
      "min": [
        0,
        0
      ],
      "type": "VEC2"
    },
    {
      "bufferView": 15,
      "componentType": 5123,
      "count": 192,
      "max": [
        99
      ],
      "min": [
        0
      ],
      "type": "SCALAR"
    },
    {
      "bufferView": 16,
      "componentType": 5126,
      "count": 52,
      "max": [
        0.014999999664723873,
        3.0999999046325684,
        0.014999999664723873
      ],
      "min": [
        -0.014999999664723873,
        -3.0999999046325684,
        -0.014999999664723873
      ],
      "type": "VEC3"
    },
    {
      "bufferView": 17,
      "componentType": 5126,
      "count": 52,
      "max": [
        1,
        1,
        1
      ],
      "min": [
        -1,
        -1,
        -1
      ],
      "type": "VEC3"
    },
    {
      "bufferView": 18,
      "componentType": 5126,
      "count": 52,
      "max": [
        1,
        1
      ],
      "min": [
        0,
        0
      ],
      "type": "VEC2"
    },
    {
      "bufferView": 19,
      "componentType": 5123,
      "count": 96,
      "max": [
        51
      ],
      "min": [
        0
      ],
      "type": "SCALAR"
    },
    {
      "bufferView": 20,
      "componentType": 5126,
      "count": 2121,
      "max": [
        3.9000000953674316,
        3.9000000953674316,
        0.4000000059604645
      ],
      "min": [
        -3.9000000953674316,
        -3.9000000953674316,
        -0.4000000059604645
      ],
      "type": "VEC3"
    },
    {
      "bufferView": 21,
      "componentType": 5126,
      "count": 2121,
      "max": [
        1,
        1,
        1
      ],
      "min": [
        -1,
        -1,
        -1
      ],
      "type": "VEC3"
    },
    {
      "bufferView": 22,
      "componentType": 5126,
      "count": 2121,
      "max": [
        1,
        1
      ],
      "min": [
        0,
        0
      ],
      "type": "VEC2"
    },
    {
      "bufferView": 23,
      "componentType": 5123,
      "count": 12000,
      "max": [
        2120
      ],
      "min": [
        0
      ],
      "type": "SCALAR"
    },
    {
      "bufferView": 24,
      "componentType": 5126,
      "count": 1111,
      "max": [
        3.5,
        3.5,
        0.19021129608154297
      ],
      "min": [
        -3.5,
        -3.5,
        -0.19021129608154297
      ],
      "type": "VEC3"
    },
    {
      "bufferView": 25,
      "componentType": 5126,
      "count": 1111,
      "max": [
        1,
        1,
        0.9510565400123596
      ],
      "min": [
        -1,
        -1,
        -0.9510565400123596
      ],
      "type": "VEC3"
    },
    {
      "bufferView": 26,
      "componentType": 5126,
      "count": 1111,
      "max": [
        1,
        1
      ],
      "min": [
        0,
        0
      ],
      "type": "VEC2"
    },
    {
      "bufferView": 27,
      "componentType": 5123,
      "count": 6000,
      "max": [
        1110
      ],
      "min": [
        0
      ],
      "type": "SCALAR"
    },
    {
      "bufferView": 28,
      "componentType": 5126,
      "count": 1313,
      "max": [
        3.25,
        3.25,
        0.15000000596046448
      ],
      "min": [
        -3.25,
        -3.25,
        -0.15000000596046448
      ],
      "type": "VEC3"
    },
    {
      "bufferView": 29,
      "componentType": 5126,
      "count": 1313,
      "max": [
        1,
        1,
        1
      ],
      "min": [
        -1,
        -1,
        -1
      ],
      "type": "VEC3"
    },
    {
      "bufferView": 30,
      "componentType": 5126,
      "count": 1313,
      "max": [
        1,
        1
      ],
      "min": [
        0,
        0
      ],
      "type": "VEC2"
    },
    {
      "bufferView": 31,
      "componentType": 5123,
      "count": 7200,
      "max": [
        1312
      ],
      "min": [
        0
      ],
      "type": "SCALAR"
    },
    {
      "bufferView": 32,
      "componentType": 5126,
      "count": 100,
      "max": [
        0.30000001192092896,
        0.30000001192092896,
        0.4000000059604645
      ],
      "min": [
        -0.30000001192092896,
        -0.30000001192092896,
        -0.4000000059604645
      ],
      "type": "VEC3"
    },
    {
      "bufferView": 33,
      "componentType": 5126,
      "count": 100,
      "max": [
        1,
        1,
        1
      ],
      "min": [
        -1,
        -1,
        -1
      ],
      "type": "VEC3"
    },
    {
      "bufferView": 34,
      "componentType": 5126,
      "count": 100,
      "max": [
        1,
        1
      ],
      "min": [
        0,
        0
      ],
      "type": "VEC2"
    },
    {
      "bufferView": 35,
      "componentType": 5123,
      "count": 192,
      "max": [
        99
      ],
      "min": [
        0
      ],
      "type": "SCALAR"
    },
    {
      "bufferView": 36,
      "componentType": 5126,
      "count": 52,
      "max": [
        0.014999999664723873,
        3.0999999046325684,
        0.014999999664723873
      ],
      "min": [
        -0.014999999664723873,
        -3.0999999046325684,
        -0.014999999664723873
      ],
      "type": "VEC3"
    },
    {
      "bufferView": 37,
      "componentType": 5126,
      "count": 52,
      "max": [
        1,
        1,
        1
      ],
      "min": [
        -1,
        -1,
        -1
      ],
      "type": "VEC3"
    },
    {
      "bufferView": 38,
      "componentType": 5126,
      "count": 52,
      "max": [
        1,
        1
      ],
      "min": [
        0,
        0
      ],
      "type": "VEC2"
    },
    {
      "bufferView": 39,
      "componentType": 5123,
      "count": 96,
      "max": [
        51
      ],
      "min": [
        0
      ],
      "type": "SCALAR"
    },
    {
      "bufferView": 40,
      "componentType": 5126,
      "count": 533,
      "max": [
        4.099855899810791,
        2.6497623920440674,
        0.18000000715255737
      ],
      "min": [
        -4.81282377243042,
        -0.17954261600971222,
        -0.18000000715255737
      ],
      "type": "VEC3"
    },
    {
      "bufferView": 41,
      "componentType": 5126,
      "count": 533,
      "max": [
        0.6131533980369568,
        0.9998311996459961,
        1
      ],
      "min": [
        -0.6131533980369568,
        -0.9998311996459961,
        -1
      ],
      "type": "VEC3"
    },
    {
      "bufferView": 42,
      "componentType": 5126,
      "count": 533,
      "max": [
        1,
        1
      ],
      "min": [
        0,
        0
      ],
      "type": "VEC2"
    },
    {
      "bufferView": 43,
      "componentType": 5123,
      "count": 2880,
      "max": [
        532
      ],
      "min": [
        0
      ],
      "type": "SCALAR"
    },
    {
      "bufferView": 44,
      "componentType": 5126,
      "count": 533,
      "max": [
        4.029419898986816,
        3.732788324356079,
        0.15000000596046448
      ],
      "min": [
        -4.5871968269348145,
        0.8779478073120117,
        -0.15000000596046448
      ],
      "type": "VEC3"
    },
    {
      "bufferView": 45,
      "componentType": 5126,
      "count": 533,
      "max": [
        0.6545003652572632,
        0.9996746778488159,
        1
      ],
      "min": [
        -0.6545003652572632,
        -0.9996746778488159,
        -1
      ],
      "type": "VEC3"
    },
    {
      "bufferView": 46,
      "componentType": 5126,
      "count": 533,
      "max": [
        1,
        1
      ],
      "min": [
        0,
        0
      ],
      "type": "VEC2"
    },
    {
      "bufferView": 47,
      "componentType": 5123,
      "count": 2880,
      "max": [
        532
      ],
      "min": [
        0
      ],
      "type": "SCALAR"
    },
    {
      "bufferView": 48,
      "componentType": 5126,
      "count": 143,
      "max": [
        -0.8321377635002136,
        3.564978837966919,
        0.18000000715255737
      ],
      "min": [
        -2.3678622245788574,
        0.335021048784256,
        -0.18000000715255737
      ],
      "type": "VEC3"
    },
    {
      "bufferView": 49,
      "componentType": 5126,
      "count": 143,
      "max": [
        0.9325680732727051,
        0.3609941005706787,
        1
      ],
      "min": [
        -0.9325680732727051,
        -0.3609941005706787,
        -1
      ],
      "type": "VEC3"
    },
    {
      "bufferView": 50,
      "componentType": 5126,
      "count": 143,
      "max": [
        1,
        1
      ],
      "min": [
        0,
        0
      ],
      "type": "VEC2"
    },
    {
      "bufferView": 51,
      "componentType": 5123,
      "count": 720,
      "max": [
        142
      ],
      "min": [
        0
      ],
      "type": "SCALAR"
    },
    {
      "bufferView": 52,
      "componentType": 5126,
      "count": 99,
      "max": [
        -2.124742269515991,
        3.26585054397583,
        0.4995604455471039
      ],
      "min": [
        -5.075257778167725,
        -0.06585045903921127,
        -0.0995604395866394
      ],
      "type": "VEC3"
    },
    {
      "bufferView": 53,
      "componentType": 5126,
      "count": 99,
      "max": [
        0.7525767087936401,
        0.6585046052932739,
        0.995604395866394
      ],
      "min": [
        -0.7525767087936401,
        -0.6585046052932739,
        -0.995604395866394
      ],
      "type": "VEC3"
    },
    {
      "bufferView": 54,
      "componentType": 5126,
      "count": 99,
      "max": [
        1,
        1
      ],
      "min": [
        0,
        0
      ],
      "type": "VEC2"
    },
    {
      "bufferView": 55,
      "componentType": 5123,
      "count": 480,
      "max": [
        98
      ],
      "min": [
        0
      ],
      "type": "SCALAR"
    },
    {
      "bufferView": 56,
      "componentType": 5126,
      "count": 99,
      "max": [
        -2.124742269515991,
        3.26585054397583,
        0.0995604395866394
      ],
      "min": [
        -5.075257778167725,
        -0.06585045903921127,
        -0.4995604455471039
      ],
      "type": "VEC3"
    },
    {
      "bufferView": 57,
      "componentType": 5126,
      "count": 99,
      "max": [
        0.7525767087936401,
        0.6585046052932739,
        0.995604395866394
      ],
      "min": [
        -0.7525767087936401,
        -0.6585046052932739,
        -0.995604395866394
      ],
      "type": "VEC3"
    },
    {
      "bufferView": 58,
      "componentType": 5126,
      "count": 99,
      "max": [
        1,
        1
      ],
      "min": [
        0,
        0
      ],
      "type": "VEC2"
    },
    {
      "bufferView": 59,
      "componentType": 5123,
      "count": 480,
      "max": [
        98
      ],
      "min": [
        0
      ],
      "type": "SCALAR"
    },
    {
      "bufferView": 60,
      "componentType": 5126,
      "count": 99,
      "max": [
        -0.9859973788261414,
        0.4995037317276001,
        0.4995085895061493
      ],
      "min": [
        -5.014002799987793,
        -0.09950371831655502,
        -0.09950859844684601
      ],
      "type": "VEC3"
    },
    {
      "bufferView": 61,
      "componentType": 5126,
      "count": 99,
      "max": [
        0.1400262862443924,
        0.9950371980667114,
        0.9950859546661377
      ],
      "min": [
        -0.1400262862443924,
        -0.9950371980667114,
        -0.9950859546661377
      ],
      "type": "VEC3"
    },
    {
      "bufferView": 62,
      "componentType": 5126,
      "count": 99,
      "max": [
        1,
        1
      ],
      "min": [
        0,
        0
      ],
      "type": "VEC2"
    },
    {
      "bufferView": 63,
      "componentType": 5123,
      "count": 480,
      "max": [
        98
      ],
      "min": [
        0
      ],
      "type": "SCALAR"
    },
    {
      "bufferView": 64,
      "componentType": 5126,
      "count": 99,
      "max": [
        -0.9859973788261414,
        0.4995037317276001,
        0.09950859844684601
      ],
      "min": [
        -5.014002799987793,
        -0.09950371831655502,
        -0.4995085895061493
      ],
      "type": "VEC3"
    },
    {
      "bufferView": 65,
      "componentType": 5126,
      "count": 99,
      "max": [
        0.1400262862443924,
        0.9950371980667114,
        0.9950859546661377
      ],
      "min": [
        -0.1400262862443924,
        -0.9950371980667114,
        -0.9950859546661377
      ],
      "type": "VEC3"
    },
    {
      "bufferView": 66,
      "componentType": 5126,
      "count": 99,
      "max": [
        1,
        1
      ],
      "min": [
        0,
        0
      ],
      "type": "VEC2"
    },
    {
      "bufferView": 67,
      "componentType": 5123,
      "count": 480,
      "max": [
        98
      ],
      "min": [
        0
      ],
      "type": "SCALAR"
    },
    {
      "bufferView": 68,
      "componentType": 5126,
      "count": 143,
      "max": [
        1.1138420104980469,
        0.5379473567008972,
        0.5199999809265137
      ],
      "min": [
        -0.11384199559688568,
        -2.537947416305542,
        0.2800000011920929
      ],
      "type": "VEC3"
    },
    {
      "bufferView": 69,
      "componentType": 5126,
      "count": 143,
      "max": [
        0.9486833214759827,
        0.3162277638912201,
        1
      ],
      "min": [
        -0.9486833214759827,
        -0.3162277638912201,
        -1
      ],
      "type": "VEC3"
    },
    {
      "bufferView": 70,
      "componentType": 5126,
      "count": 143,
      "max": [
        1,
        1
      ],
      "min": [
        0,
        0
      ],
      "type": "VEC2"
    },
    {
      "bufferView": 71,
      "componentType": 5123,
      "count": 720,
      "max": [
        142
      ],
      "min": [
        0
      ],
      "type": "SCALAR"
    },
    {
      "bufferView": 72,
      "componentType": 5126,
      "count": 143,
      "max": [
        1.1138420104980469,
        0.5379473567008972,
        -0.2800000011920929
      ],
      "min": [
        -0.11384199559688568,
        -2.537947416305542,
        -0.5199999809265137
      ],
      "type": "VEC3"
    },
    {
      "bufferView": 73,
      "componentType": 5126,
      "count": 143,
      "max": [
        0.9486833214759827,
        0.3162277638912201,
        1
      ],
      "min": [
        -0.9486833214759827,
        -0.3162277638912201,
        -1
      ],
      "type": "VEC3"
    },
    {
      "bufferView": 74,
      "componentType": 5126,
      "count": 143,
      "max": [
        1,
        1
      ],
      "min": [
        0,
        0
      ],
      "type": "VEC2"
    },
    {
      "bufferView": 75,
      "componentType": 5123,
      "count": 720,
      "max": [
        142
      ],
      "min": [
        0
      ],
      "type": "SCALAR"
    },
    {
      "bufferView": 76,
      "componentType": 5126,
      "count": 78,
      "max": [
        0.15000000596046448,
        1.2000000476837158,
        0.15000000596046448
      ],
      "min": [
        -0.15000000596046448,
        0,
        -0.15000000596046448
      ],
      "type": "VEC3"
    },
    {
      "bufferView": 77,
      "componentType": 5126,
      "count": 78,
      "max": [
        1,
        0,
        1
      ],
      "min": [
        -1,
        0,
        -1
      ],
      "type": "VEC3"
    },
    {
      "bufferView": 78,
      "componentType": 5126,
      "count": 78,
      "max": [
        1,
        1
      ],
      "min": [
        0,
        0
      ],
      "type": "VEC2"
    },
    {
      "bufferView": 79,
      "componentType": 5123,
      "count": 360,
      "max": [
        77
      ],
      "min": [
        0
      ],
      "type": "SCALAR"
    },
    {
      "bufferView": 80,
      "componentType": 5126,
      "count": 533,
      "max": [
        0.0514339953660965,
        1.306668758392334,
        1.885758638381958
      ],
      "min": [
        -0.899552047252655,
        0.9004479050636292,
        -1.885758638381958
      ],
      "type": "VEC3"
    },
    {
      "bufferView": 81,
      "componentType": 5126,
      "count": 533,
      "max": [
        0.9955207109451294,
        1,
        0.9247896075248718
      ],
      "min": [
        -0.9955207109451294,
        -1,
        -0.9247896075248718
      ],
      "type": "VEC3"
    },
    {
      "bufferView": 82,
      "componentType": 5126,
      "count": 533,
      "max": [
        1,
        1
      ],
      "min": [
        0,
        0
      ],
      "type": "VEC2"
    },
    {
      "bufferView": 83,
      "componentType": 5123,
      "count": 2880,
      "max": [
        532
      ],
      "min": [
        0
      ],
      "type": "SCALAR"
    },
    {
      "bufferView": 84,
      "componentType": 5126,
      "count": 100,
      "max": [
        0.11999999731779099,
        0.11999999731779099,
        0.4000000059604645
      ],
      "min": [
        -0.11999999731779099,
        -0.11999999731779099,
        -0.4000000059604645
      ],
      "type": "VEC3"
    },
    {
      "bufferView": 85,
      "componentType": 5126,
      "count": 100,
      "max": [
        1,
        1,
        1
      ],
      "min": [
        -1,
        -1,
        -1
      ],
      "type": "VEC3"
    },
    {
      "bufferView": 86,
      "componentType": 5126,
      "count": 100,
      "max": [
        1,
        1
      ],
      "min": [
        0,
        0
      ],
      "type": "VEC2"
    },
    {
      "bufferView": 87,
      "componentType": 5123,
      "count": 192,
      "max": [
        99
      ],
      "min": [
        0
      ],
      "type": "SCALAR"
    },
    {
      "bufferView": 88,
      "componentType": 5126,
      "count": 1716,
      "max": [
        0.9762570261955261,
        0.20000000298023224,
        1.3494060039520264
      ],
      "min": [
        -0.9762570261955261,
        -0.699999988079071,
        -0.8017022609710693
      ],
      "type": "VEC3"
    },
    {
      "bufferView": 89,
      "componentType": 5126,
      "count": 1716,
      "max": [
        0.8017022609710693,
        1.2000000476837158
      ],
      "min": [
        -1.3494060039520264,
        -1
      ],
      "type": "VEC2"
    },
    {
      "bufferView": 90,
      "componentType": 5126,
      "count": 1716,
      "max": [
        0.9991572499275208,
        1,
        0.8585999608039856
      ],
      "min": [
        -0.9991572499275208,
        -1,
        -0.9943578839302063
      ],
      "type": "VEC3"
    },
    {
      "bufferView": 91,
      "componentType": 5126,
      "count": 189,
      "max": [
        0.18000000715255737,
        0.029999999329447746,
        0.18000000715255737
      ],
      "min": [
        -0.18000000715255737,
        -0.029999999329447746,
        -0.18000000715255737
      ],
      "type": "VEC3"
    },
    {
      "bufferView": 92,
      "componentType": 5126,
      "count": 189,
      "max": [
        1,
        1,
        1
      ],
      "min": [
        -1,
        -1,
        -1
      ],
      "type": "VEC3"
    },
    {
      "bufferView": 93,
      "componentType": 5126,
      "count": 189,
      "max": [
        1,
        1
      ],
      "min": [
        0,
        0
      ],
      "type": "VEC2"
    },
    {
      "bufferView": 94,
      "componentType": 5123,
      "count": 960,
      "max": [
        188
      ],
      "min": [
        0
      ],
      "type": "SCALAR"
    },
    {
      "bufferView": 95,
      "componentType": 5126,
      "count": 123,
      "max": [
        2.9698486328125,
        -1.184266209602356,
        3.0742645263671875
      ],
      "min": [
        1.184266209602356,
        -2.9698486328125,
        -3.0742645263671875
      ],
      "type": "VEC3"
    },
    {
      "bufferView": 96,
      "componentType": 5126,
      "count": 123,
      "max": [
        1,
        1
      ],
      "min": [
        0,
        0
      ],
      "type": "VEC2"
    },
    {
      "bufferView": 97,
      "componentType": 5126,
      "count": 123,
      "max": [
        0.8320246934890747,
        -0.2820247411727905,
        0.7932465672492981
      ],
      "min": [
        0.2820247411727905,
        -0.8320246934890747,
        -0.7932465672492981
      ],
      "type": "VEC3"
    },
    {
      "bufferView": 98,
      "componentType": 5123,
      "count": 480,
      "max": [
        122
      ],
      "min": [
        0
      ],
      "type": "SCALAR"
    },
    {
      "bufferView": 99,
      "componentType": 5126,
      "count": 123,
      "max": [
        2.133436679840088,
        1.5204154253005981,
        1.1742645502090454
      ],
      "min": [
        -3.454293966293335,
        -2.283012628555298,
        -3.799999952316284
      ],
      "type": "VEC3"
    },
    {
      "bufferView": 100,
      "componentType": 5126,
      "count": 123,
      "max": [
        1,
        1
      ],
      "min": [
        0,
        0
      ],
      "type": "VEC2"
    },
    {
      "bufferView": 101,
      "componentType": 5126,
      "count": 123,
      "max": [
        0.5753462910652161,
        0.44535017013549805,
        0.2783946394920349
      ],
      "min": [
        -0.9472140073776245,
        -0.6600956320762634,
        -1
      ],
      "type": "VEC3"
    },
    {
      "bufferView": 102,
      "componentType": 5123,
      "count": 480,
      "max": [
        122
      ],
      "min": [
        0
      ],
      "type": "SCALAR"
    },
    {
      "bufferView": 103,
      "componentType": 5126,
      "count": 34,
      "max": [
        0.6000000238418579,
        0.6000000238418579,
        0
      ],
      "min": [
        -0.6000000238418579,
        -0.6000000238418579,
        0
      ],
      "type": "VEC3"
    },
    {
      "bufferView": 104,
      "componentType": 5126,
      "count": 34,
      "max": [
        0,
        0,
        1
      ],
      "min": [
        0,
        0,
        1
      ],
      "type": "VEC3"
    },
    {
      "bufferView": 105,
      "componentType": 5126,
      "count": 34,
      "max": [
        1,
        1
      ],
      "min": [
        0,
        0
      ],
      "type": "VEC2"
    },
    {
      "bufferView": 106,
      "componentType": 5123,
      "count": 96,
      "max": [
        33
      ],
      "min": [
        0
      ],
      "type": "SCALAR"
    },
    {
      "bufferView": 107,
      "componentType": 5126,
      "count": 24,
      "max": [
        0.05000000074505806,
        0.4000000059604645,
        0.05000000074505806
      ],
      "min": [
        -0.05000000074505806,
        -0.4000000059604645,
        -0.05000000074505806
      ],
      "type": "VEC3"
    },
    {
      "bufferView": 108,
      "componentType": 5126,
      "count": 24,
      "max": [
        1,
        1,
        1
      ],
      "min": [
        -1,
        -1,
        -1
      ],
      "type": "VEC3"
    },
    {
      "bufferView": 109,
      "componentType": 5126,
      "count": 24,
      "max": [
        1,
        1
      ],
      "min": [
        0,
        0
      ],
      "type": "VEC2"
    },
    {
      "bufferView": 110,
      "componentType": 5123,
      "count": 36,
      "max": [
        23
      ],
      "min": [
        0
      ],
      "type": "SCALAR"
    },
    {
      "bufferView": 111,
      "componentType": 5126,
      "count": 24,
      "max": [
        0.20000000298023224,
        0.05000000074505806,
        0.30000001192092896
      ],
      "min": [
        -0.20000000298023224,
        -0.05000000074505806,
        -0.30000001192092896
      ],
      "type": "VEC3"
    },
    {
      "bufferView": 112,
      "componentType": 5126,
      "count": 24,
      "max": [
        1,
        1,
        1
      ],
      "min": [
        -1,
        -1,
        -1
      ],
      "type": "VEC3"
    },
    {
      "bufferView": 113,
      "componentType": 5126,
      "count": 24,
      "max": [
        1,
        1
      ],
      "min": [
        0,
        0
      ],
      "type": "VEC2"
    },
    {
      "bufferView": 114,
      "componentType": 5123,
      "count": 36,
      "max": [
        23
      ],
      "min": [
        0
      ],
      "type": "SCALAR"
    },
    {
      "bufferView": 115,
      "componentType": 5126,
      "count": 287,
      "max": [
        0.1418871432542801,
        0.634544312953949,
        0.23999999463558197
      ],
      "min": [
        -4.131688594818115,
        -0.8399860262870789,
        0.1599999964237213
      ],
      "type": "VEC3"
    },
    {
      "bufferView": 116,
      "componentType": 5126,
      "count": 287,
      "max": [
        0.8660253882408142,
        0.8660253882408142,
        1
      ],
      "min": [
        -0.8660253882408142,
        -0.8660253882408142,
        -1
      ],
      "type": "VEC3"
    },
    {
      "bufferView": 117,
      "componentType": 5126,
      "count": 287,
      "max": [
        1,
        1
      ],
      "min": [
        0,
        0
      ],
      "type": "VEC2"
    },
    {
      "bufferView": 118,
      "componentType": 5123,
      "count": 1440,
      "max": [
        286
      ],
      "min": [
        0
      ],
      "type": "SCALAR"
    },
    {
      "bufferView": 119,
      "componentType": 5126,
      "count": 289,
      "max": [
        0.45000001788139343,
        0.30000001192092896,
        0.30000001192092896
      ],
      "min": [
        -0.45000001788139343,
        -0.30000001192092896,
        -0.30000001192092896
      ],
      "type": "VEC3"
    },
    {
      "bufferView": 120,
      "componentType": 5126,
      "count": 289,
      "max": [
        1,
        1,
        1
      ],
      "min": [
        -1,
        -1,
        -1
      ],
      "type": "VEC3"
    },
    {
      "bufferView": 121,
      "componentType": 5126,
      "count": 289,
      "max": [
        1.03125,
        1
      ],
      "min": [
        -0.03125,
        0
      ],
      "type": "VEC2"
    },
    {
      "bufferView": 122,
      "componentType": 5123,
      "count": 1440,
      "max": [
        288
      ],
      "min": [
        0
      ],
      "type": "SCALAR"
    },
    {
      "bufferView": 123,
      "componentType": 5126,
      "count": 18,
      "max": [
        0.25,
        0.25,
        0
      ],
      "min": [
        -0.25,
        -0.25,
        0
      ],
      "type": "VEC3"
    },
    {
      "bufferView": 124,
      "componentType": 5126,
      "count": 18,
      "max": [
        0,
        0,
        1
      ],
      "min": [
        0,
        0,
        1
      ],
      "type": "VEC3"
    },
    {
      "bufferView": 125,
      "componentType": 5126,
      "count": 18,
      "max": [
        1,
        1
      ],
      "min": [
        0,
        0
      ],
      "type": "VEC2"
    },
    {
      "bufferView": 126,
      "componentType": 5123,
      "count": 48,
      "max": [
        17
      ],
      "min": [
        0
      ],
      "type": "SCALAR"
    },
    {
      "bufferView": 127,
      "componentType": 5126,
      "count": 54,
      "max": [
        -0.9201058745384216,
        0.4164808392524719,
        0.8782839775085449
      ],
      "min": [
        -1.2798941135406494,
        -3.416480779647827,
        -0.07828398048877716
      ],
      "type": "VEC3"
    },
    {
      "bufferView": 128,
      "componentType": 5126,
      "count": 54,
      "max": [
        0.9986763596534729,
        0.20601047575473785,
        0.9785497784614563
      ],
      "min": [
        -0.9986763596534729,
        -0.20601047575473785,
        -0.9785497784614563
      ],
      "type": "VEC3"
    },
    {
      "bufferView": 129,
      "componentType": 5126,
      "count": 54,
      "max": [
        1,
        1
      ],
      "min": [
        0,
        0
      ],
      "type": "VEC2"
    },
    {
      "bufferView": 130,
      "componentType": 5123,
      "count": 240,
      "max": [
        53
      ],
      "min": [
        0
      ],
      "type": "SCALAR"
    }
  ],
  "materials": [
    {
      "pbrMetallicRoughness": {
        "baseColorFactor": [
          0.06666666666666667,
          0.06666666666666667,
          0.06666666666666667,
          1
        ],
        "metallicFactor": 0,
        "roughnessFactor": 0.9
      }
    },
    {
      "pbrMetallicRoughness": {
        "baseColorFactor": [
          0.9333333333333333,
          0.9333333333333333,
          0.9333333333333333,
          1
        ],
        "metallicFactor": 0,
        "roughnessFactor": 0.5
      }
    },
    {
      "pbrMetallicRoughness": {
        "baseColorFactor": [
          0.8,
          0.8,
          0.8,
          1
        ],
        "metallicFactor": 1,
        "roughnessFactor": 0.1
      }
    },
    {
      "pbrMetallicRoughness": {
        "baseColorFactor": [
          0.13333333333333333,
          0.3333333333333333,
          0.5333333333333333,
          1
        ],
        "metallicFactor": 0.6,
        "roughnessFactor": 0.2
      }
    },
    {
      "pbrMetallicRoughness": {
        "baseColorFactor": [
          0.3607843137254902,
          0.25098039215686274,
          0.2,
          1
        ],
        "metallicFactor": 0,
        "roughnessFactor": 0.7
      }
    },
    {
      "pbrMetallicRoughness": {
        "metallicFactor": 0,
        "roughnessFactor": 1
      },
      "emissiveFactor": [
        0.5,
        0.5,
        0.4
      ]
    }
  ],
  "meshes": [
    {
      "primitives": [
        {
          "mode": 4,
          "attributes": {
            "POSITION": 0,
            "NORMAL": 1,
            "TEXCOORD_0": 2
          },
          "indices": 3,
          "material": 0
        }
      ]
    },
    {
      "primitives": [
        {
          "mode": 4,
          "attributes": {
            "POSITION": 4,
            "NORMAL": 5,
            "TEXCOORD_0": 6
          },
          "indices": 7,
          "material": 1
        }
      ]
    },
    {
      "primitives": [
        {
          "mode": 4,
          "attributes": {
            "POSITION": 8,
            "NORMAL": 9,
            "TEXCOORD_0": 10
          },
          "indices": 11,
          "material": 2
        }
      ]
    },
    {
      "primitives": [
        {
          "mode": 4,
          "attributes": {
            "POSITION": 12,
            "NORMAL": 13,
            "TEXCOORD_0": 14
          },
          "indices": 15,
          "material": 2
        }
      ]
    },
    {
      "primitives": [
        {
          "mode": 4,
          "attributes": {
            "POSITION": 16,
            "NORMAL": 17,
            "TEXCOORD_0": 18
          },
          "indices": 19,
          "material": 2
        }
      ]
    },
    {
      "primitives": [
        {
          "mode": 4,
          "attributes": {
            "POSITION": 20,
            "NORMAL": 21,
            "TEXCOORD_0": 22
          },
          "indices": 23,
          "material": 0
        }
      ]
    },
    {
      "primitives": [
        {
          "mode": 4,
          "attributes": {
            "POSITION": 24,
            "NORMAL": 25,
            "TEXCOORD_0": 26
          },
          "indices": 27,
          "material": 1
        }
      ]
    },
    {
      "primitives": [
        {
          "mode": 4,
          "attributes": {
            "POSITION": 28,
            "NORMAL": 29,
            "TEXCOORD_0": 30
          },
          "indices": 31,
          "material": 2
        }
      ]
    },
    {
      "primitives": [
        {
          "mode": 4,
          "attributes": {
            "POSITION": 32,
            "NORMAL": 33,
            "TEXCOORD_0": 34
          },
          "indices": 35,
          "material": 2
        }
      ]
    },
    {
      "primitives": [
        {
          "mode": 4,
          "attributes": {
            "POSITION": 36,
            "NORMAL": 37,
            "TEXCOORD_0": 38
          },
          "indices": 39,
          "material": 2
        }
      ]
    },
    {
      "primitives": [
        {
          "mode": 4,
          "attributes": {
            "POSITION": 40,
            "NORMAL": 41,
            "TEXCOORD_0": 42
          },
          "indices": 43,
          "material": 3
        }
      ]
    },
    {
      "primitives": [
        {
          "mode": 4,
          "attributes": {
            "POSITION": 44,
            "NORMAL": 45,
            "TEXCOORD_0": 46
          },
          "indices": 47,
          "material": 3
        }
      ]
    },
    {
      "primitives": [
        {
          "mode": 4,
          "attributes": {
            "POSITION": 48,
            "NORMAL": 49,
            "TEXCOORD_0": 50
          },
          "indices": 51,
          "material": 3
        }
      ]
    },
    {
      "primitives": [
        {
          "mode": 4,
          "attributes": {
            "POSITION": 52,
            "NORMAL": 53,
            "TEXCOORD_0": 54
          },
          "indices": 55,
          "material": 3
        }
      ]
    },
    {
      "primitives": [
        {
          "mode": 4,
          "attributes": {
            "POSITION": 56,
            "NORMAL": 57,
            "TEXCOORD_0": 58
          },
          "indices": 59,
          "material": 3
        }
      ]
    },
    {
      "primitives": [
        {
          "mode": 4,
          "attributes": {
            "POSITION": 60,
            "NORMAL": 61,
            "TEXCOORD_0": 62
          },
          "indices": 63,
          "material": 3
        }
      ]
    },
    {
      "primitives": [
        {
          "mode": 4,
          "attributes": {
            "POSITION": 64,
            "NORMAL": 65,
            "TEXCOORD_0": 66
          },
          "indices": 67,
          "material": 3
        }
      ]
    },
    {
      "primitives": [
        {
          "mode": 4,
          "attributes": {
            "POSITION": 68,
            "NORMAL": 69,
            "TEXCOORD_0": 70
          },
          "indices": 71,
          "material": 2
        }
      ]
    },
    {
      "primitives": [
        {
          "mode": 4,
          "attributes": {
            "POSITION": 72,
            "NORMAL": 73,
            "TEXCOORD_0": 74
          },
          "indices": 75,
          "material": 2
        }
      ]
    },
    {
      "primitives": [
        {
          "mode": 4,
          "attributes": {
            "POSITION": 76,
            "NORMAL": 77,
            "TEXCOORD_0": 78
          },
          "indices": 79,
          "material": 2
        }
      ]
    },
    {
      "primitives": [
        {
          "mode": 4,
          "attributes": {
            "POSITION": 80,
            "NORMAL": 81,
            "TEXCOORD_0": 82
          },
          "indices": 83,
          "material": 2
        }
      ]
    },
    {
      "primitives": [
        {
          "mode": 4,
          "attributes": {
            "POSITION": 84,
            "NORMAL": 85,
            "TEXCOORD_0": 86
          },
          "indices": 87,
          "material": 4
        }
      ]
    },
    {
      "primitives": [
        {
          "mode": 4,
          "attributes": {
            "POSITION": 88,
            "TEXCOORD_0": 89,
            "NORMAL": 90
          },
          "material": 4
        }
      ]
    },
    {
      "primitives": [
        {
          "mode": 4,
          "attributes": {
            "POSITION": 91,
            "NORMAL": 92,
            "TEXCOORD_0": 93
          },
          "indices": 94,
          "material": 2
        }
      ]
    },
    {
      "primitives": [
        {
          "mode": 4,
          "attributes": {
            "POSITION": 95,
            "TEXCOORD_0": 96,
            "NORMAL": 97
          },
          "indices": 98,
          "material": 3
        }
      ]
    },
    {
      "primitives": [
        {
          "mode": 4,
          "attributes": {
            "POSITION": 99,
            "TEXCOORD_0": 100,
            "NORMAL": 101
          },
          "indices": 102,
          "material": 3
        }
      ]
    },
    {
      "primitives": [
        {
          "mode": 4,
          "attributes": {
            "POSITION": 103,
            "NORMAL": 104,
            "TEXCOORD_0": 105
          },
          "indices": 106,
          "material": 2
        }
      ]
    },
    {
      "primitives": [
        {
          "mode": 4,
          "attributes": {
            "POSITION": 107,
            "NORMAL": 108,
            "TEXCOORD_0": 109
          },
          "indices": 110,
          "material": 2
        }
      ]
    },
    {
      "primitives": [
        {
          "mode": 4,
          "attributes": {
            "POSITION": 111,
            "NORMAL": 112,
            "TEXCOORD_0": 113
          },
          "indices": 114,
          "material": 0
        }
      ]
    },
    {
      "primitives": [
        {
          "mode": 4,
          "attributes": {
            "POSITION": 115,
            "NORMAL": 116,
            "TEXCOORD_0": 117
          },
          "indices": 118,
          "material": 2
        }
      ]
    },
    {
      "primitives": [
        {
          "mode": 4,
          "attributes": {
            "POSITION": 119,
            "NORMAL": 120,
            "TEXCOORD_0": 121
          },
          "indices": 122,
          "material": 2
        }
      ]
    },
    {
      "primitives": [
        {
          "mode": 4,
          "attributes": {
            "POSITION": 123,
            "NORMAL": 124,
            "TEXCOORD_0": 125
          },
          "indices": 126,
          "material": 5
        }
      ]
    },
    {
      "primitives": [
        {
          "mode": 4,
          "attributes": {
            "POSITION": 127,
            "NORMAL": 128,
            "TEXCOORD_0": 129
          },
          "indices": 130,
          "material": 2
        }
      ]
    }
  ]
}